{
  "asset": {
    "version": "2.0"
  },
  "buffers": [
    {
      "byteLength": 143340,
      "uri": "clustering_cache_00030_cluster_26_surface_preview.bin"
    }
  ],
  "bufferViews": [
    {
      "buffer": 0,
      "byteOffset": 0,
      "byteLength": 114672,
      "target": 34962
    },
    {
      "buffer": 0,
      "byteOffset": 114672,
      "byteLength": 28668,
      "target": 34962
    },
    {
      "buffer": 0,
      "byteOffset": 143340,
      "byteLength": 0,
      "target": 34963
    }
  ],
  "accessors": [
    {
      "bufferView": 0,
      "componentType": 5126,
      "count": 9556,
      "type": "VEC3",
      "min": [
        0.15489527583122253,
        0.1413899064064026,
        0.1640625
      ],
      "max": [
        0.8586135506629944,
        0.856211245059967,
        0.876666247844696
      ]
    },
    {
      "bufferView": 1,
      "componentType": 5121,
      "normalized": true,
      "count": 9556,
      "type": "VEC3"
    },
    {
      "bufferView": 2,
      "componentType": 5123,
      "count": 0,
      "type": "SCALAR"
    }
  ],
  "meshes": [
    {
      "primitives": [
        {
          "attributes": {
            "POSITION": 0,
            "COLOR_0": 1
          },
          "indices": 2
        }
      ]
    }
  ],
  "nodes": [
    {
      "mesh": 0
    }
  ],
  "scenes": [
    {
      "nodes": [
        0
      ]
    }
  ],
  "scene": 0
}