{
  "asset": {
    "version": "2.0"
  },
  "buffers": [
    {
      "byteLength": 3730092,
      "uri": "clustering_cache_00030_cluster_26_surface.bin"
    }
  ],
  "bufferViews": [
    {
      "buffer": 0,
      "byteOffset": 0,
      "byteLength": 1146672,
      "target": 34962
    },
    {
      "buffer": 0,
      "byteOffset": 1146672,
      "byteLength": 286668,
      "target": 34962
    },
    {
      "buffer": 0,
      "byteOffset": 1433340,
      "byteLength": 2296752,
      "target": 34963
    }
  ],
  "accessors": [
    {
      "bufferView": 0,
      "componentType": 5126,
      "count": 95556,
      "type": "VEC3",
      "min": [
        0.14993657171726227,
        0.13843949139118195,
        0.16105636954307556
      ],
      "max": [
        0.8593477606773376,
        0.8622053861618042,
        0.878215491771698
      ]
    },
    {
      "bufferView": 1,
      "componentType": 5121,
      "normalized": true,
      "count": 95556,
      "type": "VEC3"
    },
    {
      "bufferView": 2,
      "componentType": 5125,
      "count": 574188,
      "type": "SCALAR"
    }
  ],
  "meshes": [
    {
      "primitives": [
        {
          "attributes": {
            "POSITION": 0,
            "COLOR_0": 1
          },
          "indices": 2
        }
      ]
    }
  ],
  "nodes": [
    {
      "mesh": 0
    }
  ],
  "scenes": [
    {
      "nodes": [
        0
      ]
    }
  ],
  "scene": 0
}