ply
format ascii 1.0
element vertex 8
property float x
property float y
property float z
property uchar red
property uchar green
property uchar blue
element face 12
property list uchar int vertex_indices
end_header
-0.5 -0.5 -0.5 255 64 64
0.5 -0.5 -0.5 255 192 64
0.5 0.5 -0.5 64 255 128
-0.5 0.5 -0.5 64 128 255
-0.5 -0.5 0.5 255 64 192
0.5 -0.5 0.5 255 255 64
0.5 0.5 0.5 64 255 255
-0.5 0.5 0.5 192 64 255
3 0 1 2
3 0 2 3
3 4 5 6
3 4 6 7
3 0 1 5
3 0 5 4
3 1 2 6
3 1 6 5
3 2 3 7
3 2 7 6
3 3 0 4
3 3 4 7
